<svg xmlns="http://www.w3.org/2000/svg" viewBox="0 0 225.32 82.72"><defs><style>.cls-1{font-size:12.76px;fill:#1d1d1b;}.cls-1,.cls-3{font-family:TwCenMT-CondensedExtraBold, Tw Cen MT Condensed Extra Bold;font-weight:800;}.cls-2{letter-spacing:-0.02em;}.cls-3{font-size:38px;fill:#7db329;}.cls-4{fill:#077233;}.cls-5{fill:#ffd104;}.cls-6{fill:#e0690f;}.cls-7{fill:#019039;}.cls-8{fill:#00492c;}.cls-9{fill:#1161a9;}.cls-10{fill:#6b2380;}.cls-11{fill:#74151f;}.cls-12{fill:#de0b17;}.cls-13{fill:#2d2c6e;}</style></defs><g id="Capa_2" data-name="Capa 2"><g id="Capa_1-2" data-name="Capa 1"><text class="cls-1" transform="translate(98.13 26.38) scale(1.37 1)">GOBERN<tspan class="cls-2" x="40.49" y="0">A</tspan><tspan x="47.02" y="0">CIÓN DE</tspan></text><text class="cls-3" transform="translate(40.98 53.55) scale(1.33 1)">CORDOBA</text><polygon class="cls-4" points="23.87 0 43.15 0 33.51 16.85 13.4 16.85 23.87 0"/><polygon class="cls-5" points="53.87 0 43.15 0 33.51 16.85 62.68 16.85 53.87 0"/><polygon class="cls-6" points="71.87 0 53.87 0 67.53 25.79 86.68 25.79 71.87 0"/><polygon class="cls-7" points="13.4 16.85 33.51 16.85 19 40.98 9.19 25.79 13.4 16.85"/><polygon class="cls-8" points="0 40.98 9.19 25.79 19 40.98 9.5 57.7 0 40.98"/><polygon class="cls-9" points="33.51 65.49 19 40.98 9.5 57.7 13.4 65.87 32.94 65.87 33.51 65.49"/><polygon class="cls-10" points="62.17 65.87 33.51 65.49 43.15 82.72 52.85 82.72 62.17 65.87"/><polygon class="cls-11" points="81.83 65.87 62.17 65.87 52.85 82.72 72.25 82.72 81.83 65.87"/><polygon class="cls-12" points="67.34 56.81 86.68 56.81 81.83 65.87 62.17 65.87 67.34 56.81"/><polygon class="cls-13" points="22.85 82.72 43.15 82.72 33.51 65.49 13.4 65.87 22.85 82.72"/></g></g></svg>