<svg xmlns="http://www.w3.org/2000/svg" viewBox="0 0 185.62 207.2"><defs><style>.cls-1{font-size:19.35px;fill:#9a9b9f;}.cls-1,.cls-10,.cls-12,.cls-13,.cls-14,.cls-2,.cls-8{font-family:TwCenMT-CondensedExtraBold, Tw Cen MT Condensed Extra Bold;font-weight:800;}.cls-2{font-size:34.23px;}.cls-2,.cls-6{fill:#0391d0;}.cls-3{fill:#ffe21b;}.cls-4{fill:none;}.cls-5{fill:#e7353a;}.cls-7{font-size:23.19px;fill:#1d1d1b;font-family:FreestyleScript-Regular, Freestyle Script;}.cls-10,.cls-12,.cls-13,.cls-14,.cls-8{font-size:20.82px;}.cls-8{fill:#25a2dc;}.cls-9{opacity:0.67;}.cls-10{fill:#e83b62;}.cls-11{opacity:0.8;}.cls-12{fill:#fdc63d;}.cls-13{fill:#268f85;}.cls-14{fill:#ee7542;}</style></defs><g id="Capa_2" data-name="Capa 2"><g id="Capa_1-2" data-name="Capa 1"><text class="cls-1" transform="translate(57.76 136.24) scale(0.9 1)">Alcaldía de</text><text class="cls-2" transform="translate(0 169.78) scale(1.33 1)">MONTERÍA</text><polygon class="cls-3" points="81.5 37.02 72.91 60.51 94.47 46.13 115.89 60.51 107.8 37.02 129.08 23.23 102.61 22.89 94.47 0 87.63 22.55 59.97 22.81 81.5 37.02"/><polygon class="cls-4" points="58.01 23.83 58.01 96.17 69.36 97.53 69.36 117.11 94.52 98.62 94.52 48.85 69.36 65.36 79.23 37.62 58.01 23.83"/><polygon class="cls-5" points="58.01 23.83 58.01 96.17 69.36 97.53 69.36 117.11 94.52 98.62 94.52 48.85 69.36 65.36 79.23 37.62 58.01 23.83"/><polygon class="cls-6" points="131.04 23.83 131.04 96.17 119.69 97.53 119.69 117.11 94.52 98.62 94.52 48.85 119.69 65.36 109.81 37.62 131.04 23.83"/><text class="cls-7" transform="translate(26.5 199.62) scale(0.86 1)">Gobierno de la</text><text class="cls-8" transform="translate(106.8 199.62) scale(1.52 1)">G</text><g class="cls-9"><text class="cls-10" transform="translate(118.45 199.62) scale(1.52 1)">E</text></g><g class="cls-11"><text class="cls-12" transform="translate(125.85 199.62) scale(1.52 1)">N</text></g><g class="cls-11"><text class="cls-13" transform="translate(139.72 199.62) scale(1.52 1)">T</text></g><g class="cls-11"><text class="cls-14" transform="translate(147.6 199.62) scale(1.52 1)">E</text></g></g></g></svg>